<?xml version="1.0" encoding="utf-8"?>
<!-- Generated by IcoMoon.io -->
<!DOCTYPE svg PUBLIC "-//W3C//DTD SVG 1.1//EN" "http://www.w3.org/Graphics/SVG/1.1/DTD/svg11.dtd">
<svg version="1.1" xmlns="http://www.w3.org/2000/svg" xmlns:xlink="http://www.w3.org/1999/xlink" width="64" height="64" viewBox="0 0 64 64">
<path d="M15.483 14.016l-0.001 0.001c-0.174-0.308-0.392-0.599-0.654-0.861-1.562-1.562-4.095-1.562-5.657 0-0.263 0.263-0.48 0.553-0.654 0.861l-0.001-0.001c-3.171 4.861-4.516 14.065-4.516 22.032v0 25.968c0 1.105 0.896 2 2 2h12c1.105 0 2-0.895 2-2v-25.968c-0-7.968-1.345-17.172-4.517-22.032zM12 58c0 1.105-0.896 2-2 2s-2-0.895-2-2v-24c0-1.105 0.896-2 2-2s2 0.895 2 2v2.016c0 0 0.012 0.012 0.033 0.032h-0.033v21.952z" fill="#000000"></path>
<path d="M35.483 14.016l-0.001 0.001c-0.174-0.308-0.392-0.599-0.654-0.861-1.562-1.562-4.095-1.562-5.657 0-0.263 0.263-0.48 0.553-0.654 0.861l-0.001-0.001c-3.172 4.861-4.517 14.065-4.517 22.032v0 25.968c0 1.105 0.895 2 2 2h12c1.105 0 2-0.895 2-2v-25.968c-0-7.968-1.345-17.172-4.517-22.032zM32 58c0 1.105-0.895 2-2 2s-2-0.895-2-2v-24c0-1.105 0.895-2 2-2s2 0.895 2 2v2.016c0 0 0.012 0.012 0.033 0.032h-0.033v21.952z" fill="#000000"></path>
<path d="M55.483 14.016l-0.001 0.001c-0.174-0.308-0.392-0.599-0.654-0.861-1.562-1.562-4.095-1.562-5.657 0-0.263 0.263-0.48 0.553-0.654 0.861l-0.001-0.001c-3.172 4.861-4.517 14.065-4.517 22.032v0 25.968c0 1.105 0.895 2 2 2h12c1.105 0 2-0.895 2-2v-25.968c0-7.968-1.345-17.172-4.517-22.032zM52 58c0 1.105-0.895 2-2 2s-2-0.895-2-2v-24c0-1.105 0.895-2 2-2s2 0.895 2 2v2.016c0 0 0.012 0.012 0.033 0.032h-0.033v21.952z" fill="#000000"></path>
</svg>
