<?xml version="1.0" encoding="utf-8"?>
<!-- Generated by IcoMoon.io -->
<!DOCTYPE svg PUBLIC "-//W3C//DTD SVG 1.1//EN" "http://www.w3.org/Graphics/SVG/1.1/DTD/svg11.dtd">
<svg version="1.1" xmlns="http://www.w3.org/2000/svg" xmlns:xlink="http://www.w3.org/1999/xlink" width="64" height="64" viewBox="0 0 64 64">
<path d="M51.97 28.362c-3.766-1.311-7.865 1.531-7.967 5.537-0.075 1.409 1.36 2.475 2.688 1.986 1.103-0.406 1.096-1.249 1.328-2.195 0.235-0.956 0.952-1.691 1.981-1.709 0.694 0.018 2.041 0.504 2.041 1.97 0.008 2.501-1.53 4.819-3.882 5.722-1.008 0.387-2.187 0.53-3.257 0.31-1.511-0.258-2.281-1.152-3.435-1.898-0.675-0.62-1.458-1.172-2.359-1.636-6.643-3.426-15.893 1.528-15.107 9.501 0.101 1.408 1.657 2.289 2.916 1.647 0.931-0.475 0.966-1.3 1.185-2.184 0.675-2.72 2.994-4.824 5.898-4.686 1.048 0.011 2.724 0.697 3.626 1.648 1.471 1.55 1.584 3.555 1.34 5.552-0.807 6.581-6.072 12.27-12.964 12.115-10.885-0.117-15.297-14.498-9.162-22.434 2.027-2.622 4.912-4.414 8.078-5.325 1.134-0.326 2.588-0.092 3.199-1.341 0.542-1.109-0.108-2.474-1.308-2.754-2.729-0.939-5.12-1.516-7.094-3.832-1.518-1.782-2.362-4.015-2.401-6.354 0.063-4.583 3.666-8.919 8.683-9.385-0.017 0-0.034-0.001-0.050-0.002 5.551-0.258 10.071 3.828 10.367 9.378 0.001-0.023 0.002-0.046 0.002-0.070 0.036 1.307-0.945 2.437-2.303 2.415-0.401-0.012-0.718-0.143-1.086-0.324-1.54-0.995-0.317-2.809-1.609-3.907-1.347-1.145-3.474-0.055-3.332 1.707-0.018 1.542 0.782 3.16 1.881 4.208 3.161 3.016 8.702 1.589 9.687-2.87 1.463-7.008-4.584-13.968-11.105-15.433-5.308-1.193-10.946 0.773-14.413 4.975-3.792 4.596-4.444 11.306-1.466 16.489 0.946 1.654 2.227 3.1 3.735 4.241-5.862 2.919-10.049 9.28-10.226 16.005-0.24 9.077 6.562 16.329 15.228 18.1 7.915 1.617 16.672-1.51 21.026-8.5 2.053-3.295 3.009-7.497 2.27-11.215 2.425 0.344 4.956-0.213 7.007-1.613 4.29-2.927 6.951-11.544 0.361-13.838v0z" fill="#000000"></path>
</svg>
