<?xml version="1.0" encoding="utf-8"?>
<!-- Generated by IcoMoon.io -->
<!DOCTYPE svg PUBLIC "-//W3C//DTD SVG 1.1//EN" "http://www.w3.org/Graphics/SVG/1.1/DTD/svg11.dtd">
<svg version="1.1" xmlns="http://www.w3.org/2000/svg" xmlns:xlink="http://www.w3.org/1999/xlink" width="64" height="64" viewBox="0 0 64 64">
<path d="M60 52h-12.183c-0.406-4.528-1.499-8.929-3.275-13.127-2.216-5.24-5.388-9.945-9.429-13.985-0.090-0.090-0.181-0.177-0.271-0.266l7.715-9.43c1.399-1.71 1.147-4.23-0.563-5.629s-4.23-1.147-5.629 0.563l-35.45 43.328c-0.001 0.002-0.002 0.003-0.004 0.005l-0.007 0.009 0 0c-0.565 0.69-0.904 1.572-0.904 2.533 0 2.208 1.79 3.999 3.998 4v0c0.002 0 0.003-0 0.005-0h55.998c2.209 0 4-1.791 4-4s-1.791-4-4-4zM32.298 27.73c6.596 6.602 10.598 15.103 11.502 24.27h-31.36l19.857-24.27z" fill="#000000"></path>
</svg>
